<?xml version="1.0" encoding="UTF-8"?>
<svg width="6321px" height="5066px" viewBox="0 0 6321 5066" version="1.1" xmlns="http://www.w3.org/2000/svg" xmlns:xlink="http://www.w3.org/1999/xlink">
    <!-- Generator: Sketch 48.2 (47327) - http://www.bohemiancoding.com/sketch -->
    <title>Group</title>
    <desc>Created with Sketch.</desc>
    <defs></defs>
    <g id="Page-1" stroke="none" stroke-width="1" fill="none" fill-rule="evenodd">
        <g id="Group" transform="translate(-8.000000, -8.000000)">
            <g id="Group-6" transform="translate(4466.218750, 2389.251443)">
                <circle id="Oval-2" stroke="#979797" fill="#9B9B9B" cx="466" cy="539" r="465"></circle>
                <circle id="Oval-2" stroke="#979797" fill="#F5A623" cx="465" cy="465" r="465"></circle>
                <circle id="Oval-2" stroke="#979797" fill="#D8D8D8" cx="465" cy="465" r="465"></circle>
                <circle id="Oval-2" stroke="#979797" fill="#F5A623" cx="465" cy="465" r="435"></circle>
                <path d="M31.4292642,484.5 C31.1440893,478.035656 31,471.534655 31,465 C31,224.756134 225.756134,30 466,30 C706.243866,30 901,224.756134 901,465 C901,471.534655 900.855911,478.035656 900.570736,484.5 C890.371586,253.305463 699.709217,69 466,69 C232.290783,69 41.6284138,253.305463 31.4292634,484.500017 Z" id="Combined-Shape" fill="#9B9B9B"></path>
                <circle id="Oval-2" stroke="#979797" fill="#9B9B9B" cx="466" cy="539" r="465"></circle>
                <circle id="Oval-2" stroke="#979797" fill="#F5A623" cx="465" cy="465" r="465"></circle>
                <circle id="Oval-2" stroke="#979797" fill="#D8D8D8" cx="465" cy="465" r="465"></circle>
                <circle id="Oval-2" stroke="#979797" fill="#FF725C" cx="465" cy="465" r="435"></circle>
                <path d="M31.4292642,484.5 C31.1440893,478.035656 31,471.534655 31,465 C31,224.756134 225.756134,30 466,30 C706.243866,30 901,224.756134 901,465 C901,471.534655 900.855911,478.035656 900.570736,484.5 C890.371586,253.305463 699.709217,69 466,69 C232.290783,69 41.6284138,253.305463 31.4292634,484.500017 Z" id="Combined-Shape" fill="#9B9B9B"></path>
                <path d="M301.875872,851.296875 C283.623268,879.007812 282.167539,894.640625 297.508685,898.195312 C312.849831,901.75 320.520404,923.377604 320.520404,963.078125 L320.520404,976.167969 C349.129779,992.88151 361.291237,992.88151 357.004779,976.167969 C352.71832,959.454427 345.737852,942.766927 336.063372,926.105469 C338.594622,917.964844 352.990456,915.929688 379.250872,920 C405.511289,924.070312 427.606341,924.070312 445.536029,920 C457.442279,922.390625 464.301654,930.167969 466.114154,943.332031 C467.926654,956.496094 467.020404,969.582031 463.395404,982.589844 C484.78082,997.446615 494.801654,995.30599 493.457904,976.167969 C491.442279,947.460938 468.653216,932.210938 481.05556,926.105469 C489.323789,922.035156 505.667539,917.744792 530.08681,913.234375 C569.909727,901.489583 591.823789,894.720052 595.828997,892.925781 C601.83681,890.234375 638.969622,871.855469 642.856341,907.59375 C645.447487,931.419271 655.197487,937.589844 672.106341,926.105469 C681.471956,919.196026 685.611279,913.025453 684.52431,907.59375 C683.437341,902.162047 676.593591,894.818297 663.99306,885.5625 C651.903937,883.091146 647.567708,874.091146 650.984375,858.5625 C654.401042,843.033854 638.08724,818.179688 602.042969,784 L363.6875,830.683594 L301.875872,851.296875 Z" id="Path-6" fill="#FF725C"></path>
            </g>
            <g id="Group-4" transform="translate(5230.218750, 1733.251443)">
                <circle id="Oval-2" stroke="#979797" fill="#9B9B9B" cx="466" cy="551" r="465"></circle>
                <circle id="Oval-2" stroke="#979797" fill="#F5A623" cx="465" cy="477" r="465"></circle>
                <circle id="Oval-2" stroke="#979797" fill="#D8D8D8" cx="465" cy="477" r="465"></circle>
                <circle id="Oval-2" stroke="#979797" fill="#F5A623" cx="465" cy="477" r="435"></circle>
                <path d="M31.4292642,496.5 C31.1440893,490.035656 31,483.534655 31,477 C31,236.756134 225.756134,42 466,42 C706.243866,42 901,236.756134 901,477 C901,483.534655 900.855911,490.035656 900.570736,496.5 C890.371586,265.305463 699.709217,81 466,81 C232.290783,81 41.6284138,265.305463 31.4292634,496.500017 Z" id="Combined-Shape" fill="#9B9B9B"></path>
                <circle id="Oval-2" stroke="#979797" fill="#9B9B9B" cx="466" cy="551" r="465"></circle>
                <circle id="Oval-2" stroke="#979797" fill="#F5A623" cx="465" cy="477" r="465"></circle>
                <circle id="Oval-2" stroke="#979797" fill="#D8D8D8" cx="465" cy="477" r="465"></circle>
                <circle id="Oval-2" fill="#96CCFF" cx="465" cy="477" r="435"></circle>
                <path d="M31.4292642,496.5 C31.1440893,490.035656 31,483.534655 31,477 C31,236.756134 225.756134,42 466,42 C706.243866,42 901,236.756134 901,477 C901,483.534655 900.855911,490.035656 900.570736,496.5 C890.371586,265.305463 699.709217,81 466,81 C232.290783,81 41.6284138,265.305463 31.4292634,496.500017 Z" id="Combined-Shape" fill="#9B9B9B"></path>
                <path d="M400.9375,8.5 L354.96875,22.5859375 C341.802083,26.0963542 325.182292,36.2447917 305.109375,53.03125 C275,78.2109375 278.390625,143.109375 291.75,152.945312 C300.65625,159.502604 321.729167,156.223958 354.96875,143.109375 L384.53125,104.140625 C373.59375,61.625 373.59375,39.4192708 384.53125,37.5234375 C400.9375,34.6796875 451.726562,27.703125 451.257812,40.3671875 C450.945312,48.8098958 455.710937,62.8081597 465.554687,82.3619792 C456.023437,105.453993 451.257812,117.513021 451.257812,118.539062 C451.257812,120.078125 670.46875,117.625 577.679687,53.03125 C515.820312,9.96875 478.445312,-0.1796875 465.554687,22.5859375 L400.9375,8.5 Z" id="Path-7" fill="#96CCFF"></path>
                <path d="M377.289062,19.1328125 C385.216146,8.6328125 422.932292,2.609375 490.4375,1.0625 C557.942708,-0.484375 591.695312,21.7708333 591.695312,67.828125 L547.304688,85.15625 L436.203125,19.1328125 L377.289062,19.1328125 Z" id="Path-10" fill="#96CCFF"></path>
                <path d="M258.875,848.703125 C239.432292,858.666667 239.432292,871.494792 258.875,887.1875 C278.317708,902.880208 308.971354,917.195312 350.835937,930.132812 C355.835937,943.575521 358.958333,955.570312 360.203125,966.117187 C362.070312,981.9375 360.96875,1012.98438 381.914062,1001.50781 C402.859375,990.03125 406.742188,984.59375 394.328125,966.117187 C386.052083,953.799479 386.052083,940.543745 394.328125,926.349986 L442.9375,941.0625 C467.671875,941.0625 486.544271,941.0625 499.554688,941.0625 C512.565104,941.0625 535.445312,937.419271 568.195312,930.132812 C600.934896,920.716146 617.492187,924.359375 617.867188,941.0625 C618.242187,957.765625 621.096354,972.335937 626.429688,984.773438 C656.117187,965.441155 666.755208,950.870842 658.34375,941.0625 C649.932292,931.254158 649.932292,918.420824 658.34375,902.5625 L703.5,887.1875 C704.989583,897.4375 712.382812,902.5625 725.679688,902.5625 C745.625,902.5625 780.851562,891.9375 772.890625,870.320312 C767.583333,855.908854 758.127604,848.703125 744.523438,848.703125 L725.679688,825.375 L381.914062,808.1875 L258.875,848.703125 Z" id="Path-11" fill="#96CCFF"></path>
            </g>
            <g id="Group-7" transform="translate(4932.218750, 1398.251443)">
                <path d="M997.578125,502.906788 L1030.03592,502.906788 L1406,502.906788 C1405.63853,617.521371 1305.54634,675.828663 1105.72342,677.828663 C1069.49834,678.191235 1039.3158,678.488077 1015.17581,678.719191 C1015.16398,678.593609 1015.15215,678.468012 1015.14032,678.3424 C1027.72954,678.189039 1041.96297,678.017794 1057.84061,677.828663 L1057.84061,1382.60991 C1058.3099,1415.3273 1044.29595,1437.47369 1015.79878,1449.04907 C1010.40326,1455.43308 1004.32971,1458.5992 997.578125,1458.54741 C990.631548,1458.49413 984.047692,1458.17611 977.826556,1457.59335 C971.605421,1458.17611 965.021564,1458.49413 958.074987,1458.54741 C951.3234,1458.5992 945.249851,1455.43308 939.854339,1449.04907 C911.357155,1437.47368 897.343214,1415.3273 897.8125,1382.60991 L897.8125,677.828663 C913.690143,678.017794 927.923576,678.189039 940.5128,678.3424 C940.500961,678.468021 940.489132,678.593613 940.477306,678.719191 C916.337317,678.488077 886.154777,678.191235 849.929688,677.828663 C650.106771,675.828663 550.014579,617.521371 549.653112,502.906788 L925.617187,502.906788 L997.578125,502.906788 Z M977.826556,678.805688 C973.45814,678.861396 969.498877,678.912654 965.94877,678.959462 C970.196883,678.99879 974.156149,679.034976 977.826565,679.06802 C981.49697,679.034976 985.456233,678.99879 989.704343,678.959462 C986.154235,678.912654 982.194973,678.861396 977.826556,678.805688 Z M978.153112,1428.90679 C1001.07293,1428.90679 1019.65311,1410.3266 1019.65311,1387.40679 C1019.65311,1364.48697 1001.07293,1345.90679 978.153112,1345.90679 C955.233295,1345.90679 936.653112,1364.48697 936.653112,1387.40679 C936.653112,1410.3266 955.233295,1428.90679 978.153112,1428.90679 Z" id="Combined-Shape" fill="#9B9B9B" transform="translate(977.826556, 980.727413) rotate(-45.000000) translate(-977.826556, -980.727413) "></path>
                <polygon id="Path-8" stroke="#979797" fill="#D8D8D8" transform="translate(470.445637, 470.346494) rotate(-45.000000) translate(-470.445637, -470.346494) " points="47.301106 712.241025 59.3089185 291.834775 121.816731 334.592587 194.691731 263.584775 241.207356 316.342587 288.418293 244.076962 319.629231 291.834775 370.863606 228.451962 454.051106 291.834775 493.051106 244.076962 613.840168 316.342587 645.191731 228.451962 710.097981 283.38165 770.887043 228.451962 807.605793 283.38165 848.262043 254.514462 893.590168 712.241025"></polygon>
                <path d="M21.5174416,587.506669 L29.6294946,303.49509 L92.1373071,346.252903 L165.012307,275.24509 L211.527932,328.002903 L258.73887,255.737278 L289.949807,303.49509 L341.184182,240.112278 L424.371682,303.49509 L463.371682,255.737278 L584.160745,328.002903 L615.512307,240.112278 L680.418557,295.041965 L741.20762,240.112278 L777.92637,295.041965 L818.58262,266.174778 L854.668422,630.571724 L851.262307,635.698215 C835.116474,639.875299 822.639911,640.91957 813.83262,638.831028 C805.025328,636.742486 801.931578,626.094049 804.55137,606.885715 L835.86387,541.721653 C835.86387,484.258111 828.52012,440.435195 813.83262,410.252903 C791.80137,364.979465 775.42637,338.643528 749.402932,374.448215 C732.053974,398.318007 697.027932,403.729465 644.324807,390.68259 C610.616474,369.43259 584.514911,359.385715 566.02012,360.541965 C538.277932,362.27634 529.27012,443.68259 540.879495,455.52634 C552.48887,467.37009 592.637307,561.377903 529.27012,587.135715 C487.025328,604.30759 471.840432,585.49509 483.715432,530.698215 L501.848245,455.52634 C507.58262,408.000299 494.780536,386.385715 463.441995,390.68259 C432.103453,394.979465 395.553974,420.992486 353.793557,468.721653 C293.699807,468.721653 243.642515,457.57582 203.621682,435.284153 C143.590432,401.846653 105.129495,394.71384 88.2076196,400.018528 C71.2857446,405.323215 68.2544946,458.252903 66.6998071,518.627903 C65.6633488,558.877903 51.853453,581.71384 25.2701196,587.135715 L21.5174416,587.506669 Z" id="Combined-Shape" fill="#96CCFF" transform="translate(438.092932, 439.993788) rotate(-45.000000) translate(-438.092932, -439.993788) "></path>
            </g>
            <g id="Group-8" transform="translate(5397.218750, 2829.251443)">
                <circle id="Oval-2" stroke="#979797" fill="#9B9B9B" cx="466" cy="539" r="465"></circle>
                <circle id="Oval-2" stroke="#979797" fill="#F5A623" cx="465" cy="465" r="465"></circle>
                <circle id="Oval-2" stroke="#979797" fill="#D8D8D8" cx="465" cy="465" r="465"></circle>
                <circle id="Oval-2" stroke="#979797" fill="#F5A623" cx="465" cy="465" r="435"></circle>
                <path d="M31.4292642,484.5 C31.1440893,478.035656 31,471.534655 31,465 C31,224.756134 225.756134,30 466,30 C706.243866,30 901,224.756134 901,465 C901,471.534655 900.855911,478.035656 900.570736,484.5 C890.371586,253.305463 699.709217,69 466,69 C232.290783,69 41.6284138,253.305463 31.4292634,484.500017 Z" id="Combined-Shape" fill="#9B9B9B"></path>
                <path d="M577.597656,878.863281 C565.039062,886.016927 560.852865,893.028646 565.039062,899.898438 C571.318359,910.203125 566.636719,920.507813 598.308594,910.203125 C619.423177,903.333333 633.466146,909.86849 640.4375,929.808594 C640.4375,941.660156 640.4375,949.463542 640.4375,953.21875 C640.4375,958.851563 667.878906,965.960938 667.4375,953.21875 C667.143229,944.723958 658.143229,928.427083 640.4375,904.328125 C638.643229,898.026042 646.125,891.445312 662.882812,884.585938 C679.640625,877.726563 693.126302,870.322917 703.339844,862.375 L717.902344,884.585938 C712.022135,901.664063 713.634115,910.203125 722.738281,910.203125 C736.394531,910.203125 761.058594,897.371094 741.898438,884.585938 C722.738281,871.800781 710.503906,853.800781 722.738281,849.976563 C730.894531,847.427083 742.768229,839.309896 758.359375,825.625 L771.59375,830.128906 C790.578125,841.803385 802.970052,840.302083 808.769531,825.625 C817.46875,803.609375 830.054688,770.933594 808.769531,783.984375 C794.579427,792.684896 777.776042,792.684896 758.359375,783.984375 L722.738281,755.199219 L522.347656,857.774918 L577.597656,878.863281 Z" id="Path-5" fill="#F5A623"></path>
                <circle id="Oval-2" stroke="#979797" fill="#9B9B9B" cx="466" cy="539" r="465"></circle>
                <circle id="Oval-2" stroke="#979797" fill="#F5A623" cx="465" cy="465" r="465"></circle>
                <circle id="Oval-2" stroke="#979797" fill="#D8D8D8" cx="465" cy="465" r="465"></circle>
                <g id="Group-5" transform="translate(31.000000, 30.000000)" fill="#FBF1A9">
                    <circle id="Oval-2" stroke="#979797" cx="435" cy="435" r="435"></circle>
                    <path d="M317.695313,847.929688 C293.950521,857.257812 290.575521,867.541667 307.570313,878.78125 C324.565104,890.020833 340.348958,895.640625 354.921875,895.640625 L354.921875,915.007812 L365.890625,938.265625 L354.921875,952.992188 L365.890625,952.992188 C377.005208,958.679688 381.460937,953.770833 379.257812,938.265625 C377.054687,922.760417 372.598958,908.552083 365.890625,895.640625 L401.835937,901.605706 L435.1875,901.605706 L474.445312,901.605706 L482.476562,915.007812 L474.445312,952.992188 L474.445312,968.578125 L498.953125,938.265625 L498.953125,908.253906 L498.953125,887.015625 L490.765625,865.484375 L415.171875,820.15625 L317.695313,847.929688 Z" id="Path-2"></path>
                    <path d="M547.597656,848.863281 C535.039062,856.016927 530.852865,863.028646 535.039062,869.898438 C541.318359,880.203125 536.636719,890.507813 568.308594,880.203125 C589.423177,873.333333 603.466146,879.86849 610.4375,899.808594 C610.4375,911.660156 610.4375,919.463542 610.4375,923.21875 C610.4375,928.851563 637.878906,935.960938 637.4375,923.21875 C637.143229,914.723958 628.143229,898.427083 610.4375,874.328125 C608.643229,868.026042 616.125,861.445312 632.882812,854.585938 C649.640625,847.726563 663.126302,840.322917 673.339844,832.375 L687.902344,854.585938 C682.022135,871.664063 683.634115,880.203125 692.738281,880.203125 C706.394531,880.203125 731.058594,867.371094 711.898438,854.585938 C692.738281,841.800781 680.503906,823.800781 692.738281,819.976563 C700.894531,817.427083 712.768229,809.309896 728.359375,795.625 L741.59375,800.128906 C760.578125,811.803385 772.970052,810.302083 778.769531,795.625 C787.46875,773.609375 800.054688,740.933594 778.769531,753.984375 C764.579427,762.684896 747.776042,762.684896 728.359375,753.984375 L692.738281,725.199219 L492.347656,827.774918 L547.597656,848.863281 Z" id="Path-5"></path>
                </g>
                <path d="M31.4292642,484.5 C31.1440893,478.035656 31,471.534655 31,465 C31,224.756134 225.756134,30 466,30 C706.243866,30 901,224.756134 901,465 C901,471.534655 900.855911,478.035656 900.570736,484.5 C890.371586,253.305463 699.709217,69 466,69 C232.290783,69 41.6284138,253.305463 31.4292634,484.500017 Z" id="Combined-Shape" fill="#9B9B9B"></path>
            </g>
            <rect id="Rectangle" fill="#FBF1A9" transform="translate(1334.664049, 1334.664049) rotate(315.000000) translate(-1334.664049, -1334.664049) " x="705.664049" y="76.1640495" width="1258" height="2517" rx="20"></rect>
            <g id="Group-10" transform="translate(3993.548582, 4198.581275) rotate(315.000000) translate(-3993.548582, -4198.581275) translate(3109.048582, 2940.081275)">
                <path d="" id="Path-4" stroke="#979797"></path>
                <path d="" id="Path-4" stroke="#979797"></path>
                <rect id="Rectangle" fill="#D8D8D8" x="435" y="0" width="1258" height="409" rx="20"></rect>
                <path d="M1695.98855,38.7239691 C1744.07189,34.3073024 1768.01199,50.0989691 1767.80886,86.0989691 C1767.60574,122.098969 1767.7073,207.513032 1768.11355,342.341157 C1764.73855,366.570323 1748.30366,378.690115 1718.80886,378.700532 C1689.31407,378.710948 1681.7073,378.70574 1695.98855,378.684907 L1695.98855,38.7239691 Z" id="Path-12" fill="#D8D8D8"></path>
                <path d="M362.988552,38.7239691 C411.071886,34.3073024 435.01199,50.0989691 434.808865,86.0989691 C434.60574,122.098969 434.707302,207.513032 435.113552,342.341157 C431.738552,366.570323 415.303656,378.690115 385.808865,378.700532 C356.314073,378.710948 348.707302,378.70574 362.988552,378.684907 L362.988552,38.7239691 Z" id="Path-12" fill="#D8D8D8" transform="translate(395.556776, 208.352870) scale(-1, 1) translate(-395.556776, -208.352870) "></path>
                <path d="M335.9375,210.548731 C111.979167,202.969534 0.40625,273.90447 1.21875,423.353541 C2.03125,572.802612 1.625,662.947786 0,693.789062" id="Path-13" stroke="#979797" stroke-width="57"></path>
                <path d="M336.9375,426.548731 C112.979167,418.969534 1.40625,489.90447 2.21875,639.353541 C3.03125,788.802612 2.625,878.947786 1,909.789062" id="Path-13" stroke="#979797" stroke-width="57" transform="translate(168.968750, 667.894531) scale(1, -1) translate(-168.968750, -667.894531) "></path>
                <path d="M909.066573,736.644698 C685.10824,725.957198 573.535323,825.98324 574.347823,1036.72282 C575.160323,1247.46241 574.754073,1374.57699 573.129073,1418.06657" id="Path-13" stroke="#979797" stroke-width="57" transform="translate(741.097823, 1076.968750) scale(-1, -1) rotate(270.000000) translate(-741.097823, -1076.968750) "></path>
                <path d="M299.5,909.5 L534.5,909.5" id="Line-2" stroke="#979797" stroke-width="57" stroke-linecap="square"></path>
                <polygon id="Path-14" stroke="#979797" fill="#D8D8D8" points="1188.53125 1265 939.71875 1265 905 2516.90625 1239.6875 2516.90625"></polygon>
            </g>
            <path d="M1783,2654.28125 C2057.47917,2870.96875 2314.71875,2882.60417 2554.71875,2689.1875 C2794.71875,2495.77083 2914.71875,2307.41667 2914.71875,2124.125 L2634.34375,1768 L1871.1875,1804.125 L1783,2654.28125 Z" id="Path-16" fill="#FBF1A9"></path>
            <path d="M1800,2647.46875 C2145.45833,2886.84375 2397.28125,3047.125 2555.46875,3128.3125 C2713.65625,3209.5 2737.69792,3222.05208 2627.59375,3165.96875 L2589.71875,3074.03125 L2627.59375,2970.34375 L2685.25,2970.34375 L2589.71875,2845.03125 L2857.5,3014.1875 L2685.25,2845.03125 L3141.46875,3128.3125 L2729.96875,2718.40625 L2986.71875,2845.03125 L2786,2567.0625 L3294.3125,3014.1875 L2857.5,2480.8125 L3456.21875,3014.1875 L3456.21875,2921.75 L2940.625,2388.6875 L3385.6875,2718.40625 L3385.6875,2647.46875 L2627.59375,1750 L1800,2647.46875 Z" id="Path-17" fill="#FBF1A9"></path>
            <path d="M3987.8959,3392.25029 L3984.15371,3389.37689 C3969.82559,3371.22064 3961.79955,3354.24929 3960.07559,3338.46283 C3957.48965,3314.78314 3960.07559,3295.03314 3962.66152,3281.45501 C3965.24746,3267.87689 3962.66152,3221.16595 3945.80996,3178.58783 C3928.9584,3136.0097 3906.34902,3178.58783 3890.84121,3178.58783 C3875.3334,3178.58783 3849.40371,3164.64251 3878.34902,3201.91595 C3907.29434,3239.18939 3901.02871,3293.9472 3923.05215,3354.06439 C3945.07559,3414.18158 3923.05215,3452.98626 3890.84121,3464.40814 C3858.63027,3475.83001 3849.40371,3452.98626 3819.97402,3426.9472 C3790.54434,3400.90814 3819.97402,3381.77533 3849.40371,3362.14251 C3878.8334,3342.5097 3864.54434,3299.51751 3849.40371,3238.25189 C3834.26309,3176.98626 3785.29434,3164.64251 3712.75527,3164.64251 C3640.21621,3164.64251 3666.11465,3178.58783 3653.98184,3238.25189 C3641.84902,3297.91595 3700.11465,3296.24408 3726.7084,3372.54095 C3753.30215,3448.83783 3712.56777,3480.35345 3666.11465,3486.84564 C3619.66152,3493.33783 3641.84902,3441.17376 3653.98184,3426.9472 C3666.11465,3412.72064 3653.98184,3403.0722 3653.98184,3372.54095 C3653.98184,3342.0097 3644.28652,3310.0939 3625.56777,3281.45501 C3606.84902,3252.81613 3587.47402,3238.25189 3450.43496,3201.91595 C3313.3959,3165.58001 3316.88809,3238.25189 3261.20059,3238.25189 C3224.07559,3238.25189 3190.70059,3222.53574 3161.07559,3191.10345 C3114.97663,3173.46283 3105.10684,3183.48366 3131.46621,3221.16595 C3171.00527,3277.68939 3179.3959,3389.08783 3180.38027,3413.92376 C3181.36465,3438.7597 3143.5209,3452.98626 3110.81777,3452.98626 C3078.11465,3452.98626 3083.54434,3421.96283 3078.59121,3403.0722 C3073.63809,3384.18158 3091.92715,3358.1347 3110.81777,3338.46283 C3129.7084,3318.79095 3110.81777,3281.45501 3091.92715,3238.25189 C3073.03652,3195.04876 3050.86465,3199.48626 3018.3334,3191.10345 C2985.80215,3182.72064 2971.0209,3191.10345 2949.63809,3221.16595 C2928.25527,3251.22845 2940.63027,3281.45501 2930.09121,3338.46283 C2919.55215,3395.47064 2947.55996,3392.53314 2949.63809,3413.92376 C2951.71621,3435.31439 2931.56777,3452.98626 2930.09121,3452.98626 C2928.61465,3452.98626 2909.07559,3458.74408 2886.05996,3452.98626 C2863.04434,3447.22845 2872.38809,3439.40814 2868.71621,3413.92376 C2866.2683,3396.93418 2872.04955,3371.78054 2886.05996,3338.46283 C2900.42455,3285.61387 2908.09642,3252.21022 2909.07559,3238.25189 C2910.05475,3224.29356 2902.38288,3204.40554 2886.05996,3178.58783 C2856.87246,3169.29095 2835.07559,3164.64251 2820.66934,3164.64251 C2799.05996,3164.64251 2808.62246,3189.95501 2832.56777,3238.25189 C2856.51309,3286.54876 2784.84902,3286.90814 2761.36465,3281.45501 C2745.7084,3277.8196 2736.87246,3238.8821 2734.85684,3164.64251 L2729.8959,3163.74586 L2729.8959,3148.45501 C2729.8959,3137.40932 2738.8502,3128.45501 2749.8959,3128.45501 L3967.8959,3128.45501 C3978.94159,3128.45501 3987.8959,3137.40932 3987.8959,3148.45501 L3987.8959,3392.25029 Z" id="Combined-Shape" fill="#FBF1A9" transform="translate(3358.895899, 3307.928592) rotate(315.000000) translate(-3358.895899, -3307.928592) "></path>
            <path d="M4368.07812,4455.25144 C4383.85669,4389.07436 4401.13215,4372.53009 4419.9045,4405.61863 C4438.67685,4438.70717 4421.40139,4455.25144 4368.07812,4455.25144 Z" id="Path-18" stroke="#979797" fill="#FBF1A9"></path>
            <path d="M4449.21875,4584.56394 C4480.96875,4610.90769 4506.58854,4624.05353 4526.07812,4624.00144 C4555.3125,4623.92332 4568.90625,4604.28308 4613.20312,4604.28292 C4657.5,4604.28277 4711.875,4553.65846 4717.4375,4604.28308 C4723,4654.90769 4741.73438,4685.81394 4691.3125,4654.90769 C4640.89062,4624.00144 4587.34128,4610.26707 4587.34128,4654.90769 C4587.34128,4699.54832 4613.20312,4730.62644 4613.20312,4757.78269 C4613.20312,4775.88686 4558.54167,4718.14728 4449.21875,4584.56394 Z" id="Path-19" fill="#FBF1A9"></path>
            <path d="M4370.51562,4128.23582 C4312.57812,4090.0379 4278.75,4090.0379 4269.03125,4128.23582 C4254.45312,4185.53269 4239.875,4206.32957 4254.45312,4224.87644 C4264.17188,4237.24103 4282.50922,4261.77748 4309.46515,4298.48582 C4362.19672,4249.4129 4368.64062,4224.87644 4328.79688,4224.87644 C4269.03125,4224.87644 4257.04688,4153.00144 4292.92188,4153.00144 C4316.83854,4153.00144 4342.70312,4144.74623 4370.51562,4128.23582 Z" id="Path-20" fill="#FBF1A9"></path>
        </g>
    </g>
</svg>