<?xml version="1.0" encoding="UTF-8"?>
<svg width="137px" height="111px" viewBox="0 0 137 111" version="1.1" xmlns="http://www.w3.org/2000/svg" xmlns:xlink="http://www.w3.org/1999/xlink">
    <!-- Generator: Sketch 48.2 (47327) - http://www.bohemiancoding.com/sketch -->
    <title>Alviks Måleri Logo Vektoriserad</title>
    <desc>Created with Sketch.</desc>
    <defs></defs>
    <g id="Page-1" stroke="none" stroke-width="1" fill="none" fill-rule="evenodd">
        <g id="Alviks-Måleri-Logo-Vektoriserad" transform="translate(0.000000, -1.000000)">
            <polygon id="Fill-1" fill="#D8232A" points="0.115 35.813 67.75 35.813 67.75 1.04 0.115 1.04"></polygon>
            <polygon id="Fill-2" fill="#135A9A" points="67.754 70.622 136.097 70.622 136.097 35.816 67.754 35.816"></polygon>
            <polygon id="Fill-3" fill="#E8A12E" points="0.118 105.445 67.753 105.445 67.753 70.639 0.118 70.639"></polygon>
            <path d="M7.195,23.152 L8.736,14.006 L8.802,14.006 L10.343,23.152 L7.195,23.152 Z M3.195,30.6 L5.917,30.6 L6.769,25.766 L10.835,25.766 L11.622,30.6 L14.344,30.6 L10.245,8.649 L7.327,8.649 L3.195,30.6 Z" id="Fill-4" fill="#FFFFFF"></path>
            <polyline id="Fill-5" fill="#FFFFFF" points="16.739 8.654 19.559 8.654 19.559 27.972 24.969 27.972 24.969 30.6 16.739 30.6 16.739 8.654"></polyline>
            <polyline id="Fill-6" fill="#FFFFFF" points="24.654 8.653 27.605 8.653 29.606 23.24 29.671 23.24 31.705 8.653 34.656 8.653 30.622 30.599 28.688 30.599 24.654 8.653"></polyline>
            <polygon id="Fill-7" fill="#FFFFFF" points="37.957 30.602 40.777 30.602 40.777 8.653 37.957 8.653"></polygon>
            <path d="M45.326,30.602 L48.146,30.602 L48.146,8.654 L45.326,8.654 L45.326,30.602 Z M48.244,19.463 L51.327,8.654 L54.212,8.654 L50.769,19.103 L55.065,30.602 L52.147,30.602 L48.244,19.463 Z" id="Fill-8" fill="#FFFFFF"></path>
            <path d="M56.902,27.126 C57.689,27.88 58.542,28.339 59.361,28.339 C60.542,28.339 61.493,27.388 61.493,26.208 C61.493,22.83 56.771,17.911 56.771,13.419 C56.771,10.468 58.607,8.402 61.231,8.402 C62.018,8.402 62.673,8.566 63.591,8.992 L63.591,11.648 C62.739,11.156 62.28,10.96 61.624,10.96 C60.247,10.96 59.493,11.648 59.493,13.059 C59.493,16.534 64.214,21.256 64.214,25.847 C64.214,28.831 62.378,30.897 59.69,30.897 C58.706,30.897 57.853,30.635 56.902,30.044 L56.902,27.126" id="Fill-9" fill="#FFFFFF"></path>
            <polyline id="Fill-10" fill="#D8232A" points="79.721 8.697 82.148 8.697 82.148 30.602 79.475 30.602 79.475 14.764 76.737 21.912 76.212 21.912 73.475 14.764 73.475 30.602 70.802 30.602 70.802 8.697 73.228 8.697 76.475 16.731 79.721 8.697"></polyline>
            <path d="M84.213,30.602 L86.935,30.602 L87.788,25.77 L91.854,25.77 L92.641,30.602 L95.362,30.602 L91.263,8.664 L88.345,8.664 L84.213,30.602 Z M88.214,23.158 L89.755,14.018 L89.82,14.018 L91.362,23.158 L88.214,23.158 Z" id="Fill-11" fill="#D8232A"></path>
            <polyline id="Fill-12" fill="#D8232A" points="97.526 8.697 100.346 8.697 100.346 27.979 105.757 27.979 105.757 30.602 97.526 30.602 97.526 8.697"></polyline>
            <polyline id="Fill-13" fill="#D8232A" points="107.809 8.697 115.613 8.697 115.613 11.32 110.629 11.32 110.629 17.879 115.187 17.879 115.187 20.502 110.629 20.502 110.629 27.979 115.875 27.979 115.875 30.602 107.809 30.602 107.809 8.697"></polyline>
            <path d="M121.465,18.174 L121.465,11.32 C123.17,11.353 123.957,12.468 123.957,14.862 C123.957,17.026 123.137,18.174 121.596,18.174 L121.465,18.174 Z M118.645,30.602 L121.465,30.602 L121.465,20.797 C123.071,20.633 123.728,22.535 124.711,26.831 L125.564,30.602 L128.515,30.602 L127.498,26.109 C126.744,22.83 125.826,20.403 124.514,19.452 C126.023,18.403 126.776,16.862 126.776,14.764 C126.776,12.009 125.53,8.697 121.006,8.697 L118.645,8.697 L118.645,30.602 Z" id="Fill-14" fill="#D8232A"></path>
            <polygon id="Fill-15" fill="#D8232A" points="130.656 30.601 133.476 30.601 133.476 8.697 130.656 8.697"></polygon>
            <path d="M7.195,57.902 L8.736,48.756 L8.802,48.756 L10.343,57.902 L7.195,57.902 Z M3.195,65.35 L5.917,65.35 L6.769,60.516 L10.835,60.516 L11.622,65.35 L14.344,65.35 L10.245,43.399 L7.327,43.399 L3.195,65.35 Z" id="Fill-16" fill="#135A9A"></path>
            <polyline id="Fill-17" fill="#135A9A" points="16.739 43.404 19.559 43.404 19.559 62.722 24.969 62.722 24.969 65.35 16.739 65.35 16.739 43.404"></polyline>
            <polyline id="Fill-18" fill="#135A9A" points="24.654 43.403 27.605 43.403 29.606 57.99 29.671 57.99 31.705 43.403 34.656 43.403 30.622 65.349 28.688 65.349 24.654 43.403"></polyline>
            <polygon id="Fill-19" fill="#135A9A" points="37.957 65.351 40.777 65.351 40.777 43.402 37.957 43.402"></polygon>
            <path d="M45.326,65.351 L48.146,65.351 L48.146,43.404 L45.326,43.404 L45.326,65.351 Z M48.244,54.213 L51.327,43.404 L54.212,43.404 L50.769,53.853 L55.065,65.352 L52.147,65.352 L48.244,54.213 Z" id="Fill-20" fill="#135A9A"></path>
            <path d="M56.902,61.876 C57.689,62.63 58.542,63.089 59.361,63.089 C60.542,63.089 61.493,62.138 61.493,60.958 C61.493,57.58 56.771,52.661 56.771,48.169 C56.771,45.218 58.607,43.152 61.231,43.152 C62.018,43.152 62.673,43.316 63.591,43.742 L63.591,46.398 C62.739,45.906 62.28,45.71 61.624,45.71 C60.247,45.71 59.493,46.398 59.493,47.809 C59.493,51.284 64.214,56.006 64.214,60.597 C64.214,63.581 62.378,65.647 59.69,65.647 C58.706,65.647 57.853,65.385 56.902,64.794 L56.902,61.876" id="Fill-21" fill="#135A9A"></path>
            <polyline id="Fill-22" fill="#FFFFFE" points="79.721 43.164 82.148 43.164 82.148 65.068 79.475 65.068 79.475 49.231 76.737 56.379 76.212 56.379 73.475 49.231 73.475 65.068 70.802 65.068 70.802 43.164 73.228 43.164 76.475 51.197 79.721 43.164"></polyline>
            <path d="M84.213,65.068 L86.935,65.068 L87.788,60.236 L91.854,60.236 L92.641,65.068 L95.362,65.068 L91.263,43.131 L88.345,43.131 L84.213,65.068 Z M88.214,57.625 L89.755,48.484 L89.82,48.484 L91.362,57.625 L88.214,57.625 Z" id="Fill-23" fill="#FFFFFE"></path>
            <polyline id="Fill-24" fill="#FFFFFE" points="97.526 43.164 100.346 43.164 100.346 62.445 105.757 62.445 105.757 65.068 97.526 65.068 97.526 43.164"></polyline>
            <polyline id="Fill-25" fill="#FFFFFE" points="107.809 43.164 115.613 43.164 115.613 45.787 110.629 45.787 110.629 52.346 115.187 52.346 115.187 54.969 110.629 54.969 110.629 62.445 115.875 62.445 115.875 65.068 107.809 65.068 107.809 43.164"></polyline>
            <path d="M121.465,52.641 L121.465,45.787 C123.17,45.82 123.957,46.935 123.957,49.329 C123.957,51.493 123.137,52.641 121.596,52.641 L121.465,52.641 Z M118.645,65.068 L121.465,65.068 L121.465,55.264 C123.071,55.1 123.728,57.002 124.711,61.298 L125.564,65.068 L128.515,65.068 L127.498,60.576 C126.744,57.297 125.826,54.87 124.514,53.919 C126.023,52.87 126.776,51.329 126.776,49.231 C126.776,46.476 125.53,43.164 121.006,43.164 L118.645,43.164 L118.645,65.068 Z" id="Fill-26" fill="#FFFFFE"></path>
            <polygon id="Fill-27" fill="#FFFFFE" points="130.656 65.068 133.476 65.068 133.476 43.164 130.656 43.164"></polygon>
            <path d="M7.195,92.652 L8.736,83.506 L8.802,83.506 L10.343,92.652 L7.195,92.652 Z M3.195,100.1 L5.917,100.1 L6.769,95.266 L10.835,95.266 L11.622,100.1 L14.344,100.1 L10.245,78.149 L7.327,78.149 L3.195,100.1 Z" id="Fill-28" fill="#FFFFFF"></path>
            <polyline id="Fill-29" fill="#FFFFFF" points="16.739 78.154 19.559 78.154 19.559 97.472 24.969 97.472 24.969 100.1 16.739 100.1 16.739 78.154"></polyline>
            <polyline id="Fill-30" fill="#FFFFFF" points="24.654 78.153 27.605 78.153 29.606 92.74 29.671 92.74 31.705 78.153 34.656 78.153 30.622 100.099 28.688 100.099 24.654 78.153"></polyline>
            <polygon id="Fill-31" fill="#FFFFFF" points="37.957 100.101 40.777 100.101 40.777 78.152 37.957 78.152"></polygon>
            <path d="M45.326,100.101 L48.146,100.101 L48.146,78.154 L45.326,78.154 L45.326,100.101 Z M48.244,88.963 L51.327,78.154 L54.212,78.154 L50.769,88.603 L55.065,100.102 L52.147,100.102 L48.244,88.963 Z" id="Fill-32" fill="#FFFFFF"></path>
            <path d="M56.902,96.626 C57.689,97.38 58.542,97.839 59.361,97.839 C60.542,97.839 61.493,96.888 61.493,95.708 C61.493,92.33 56.771,87.411 56.771,82.919 C56.771,79.968 58.607,77.902 61.231,77.902 C62.018,77.902 62.673,78.066 63.591,78.492 L63.591,81.148 C62.739,80.656 62.28,80.46 61.624,80.46 C60.247,80.46 59.493,81.148 59.493,82.559 C59.493,86.034 64.214,90.756 64.214,95.347 C64.214,98.331 62.378,100.397 59.69,100.397 C58.706,100.397 57.853,100.135 56.902,99.544 L56.902,96.626" id="Fill-33" fill="#FFFFFF"></path>
            <polyline id="Fill-34" fill="#E8A12E" points="79.721 78.197 82.148 78.197 82.148 100.102 79.475 100.102 79.475 84.264 76.737 91.412 76.212 91.412 73.475 84.264 73.475 100.102 70.802 100.102 70.802 78.197 73.228 78.197 76.475 86.231 79.721 78.197"></polyline>
            <path d="M84.213,100.102 L86.935,100.102 L87.788,95.27 L91.854,95.27 L92.641,100.102 L95.362,100.102 L91.263,78.164 L88.345,78.164 L84.213,100.102 Z M88.214,92.658 L89.755,83.518 L89.82,83.518 L91.362,92.658 L88.214,92.658 Z" id="Fill-35" fill="#E8A12E"></path>
            <polyline id="Fill-36" fill="#E8A12E" points="97.526 78.197 100.346 78.197 100.346 97.478 105.757 97.478 105.757 100.102 97.526 100.102 97.526 78.197"></polyline>
            <polyline id="Fill-37" fill="#E8A12E" points="107.809 78.197 115.613 78.197 115.613 80.82 110.629 80.82 110.629 87.379 115.187 87.379 115.187 90.002 110.629 90.002 110.629 97.478 115.875 97.478 115.875 100.102 107.809 100.102 107.809 78.197"></polyline>
            <path d="M121.465,87.674 L121.465,80.82 C123.17,80.854 123.957,81.968 123.957,84.362 C123.957,86.526 123.137,87.674 121.596,87.674 L121.465,87.674 Z M118.645,100.102 L121.465,100.102 L121.465,90.297 C123.071,90.133 123.728,92.035 124.711,96.331 L125.564,100.102 L128.515,100.102 L127.498,95.609 C126.744,92.33 125.826,89.903 124.514,88.952 C126.023,87.903 126.776,86.362 126.776,84.264 C126.776,81.509 125.53,78.197 121.006,78.197 L118.645,78.197 L118.645,100.102 Z" id="Fill-38" fill="#E8A12E"></path>
            <polygon id="Fill-39" fill="#E8A12E" points="130.656 100.101 133.476 100.101 133.476 78.197 130.656 78.197"></polygon>
            <path d="M132.845,106.463 C132.845,106.693 132.768,106.925 132.601,107.091 C132.362,107.335 132.099,107.356 131.778,107.356 L130.656,107.356 L130.656,105.649 L131.849,105.649 C132.099,105.649 132.301,105.655 132.51,105.803 C132.74,105.955 132.845,106.185 132.845,106.463 Z M133.491,109.912 L132.551,107.697 C133.109,107.543 133.442,107.035 133.442,106.471 C133.442,106.066 133.256,105.671 132.935,105.426 C132.614,105.182 132.237,105.133 131.849,105.133 L130.058,105.133 L130.058,109.912 L130.656,109.912 L130.656,107.844 L131.98,107.844 L132.865,109.912 L133.491,109.912 Z" id="Fill-40" fill="#D8232A"></path>
            <path d="M127.071,107.523 C127.071,109.984 129.074,111.986 131.534,111.986 C133.996,111.986 135.998,109.984 135.998,107.523 C135.998,105.062 133.996,103.06 131.534,103.06 C129.074,103.06 127.071,105.062 127.071,107.523 Z M127.687,107.523 C127.687,105.4 129.412,103.673 131.534,103.673 C133.656,103.673 135.384,105.4 135.384,107.523 C135.384,109.646 133.656,111.373 131.534,111.373 C129.412,111.373 127.687,109.646 127.687,107.523 Z" id="Fill-41" fill="#D8232A"></path>
            <path d="M89.772,4.118 C90.534,4.118 91.126,4.708 91.126,5.466 C91.126,6.225 90.534,6.815 89.772,6.815 C89.011,6.815 88.419,6.225 88.419,5.466 C88.419,4.708 89.011,4.118 89.772,4.118 Z M89.772,3.304 C88.56,3.304 87.572,4.259 87.572,5.466 C87.572,6.674 88.56,7.657 89.772,7.657 C90.985,7.657 91.944,6.674 91.944,5.466 C91.944,4.259 90.985,3.304 89.772,3.304 Z" id="Fill-42" fill="#D8232A"></path>
            <path d="M89.847,38.405 C90.609,38.405 91.202,38.995 91.202,39.753 C91.202,40.512 90.609,41.102 89.847,41.102 C89.086,41.102 88.494,40.512 88.494,39.753 C88.494,38.995 89.086,38.405 89.847,38.405 Z M89.847,37.592 C88.635,37.592 87.647,38.547 87.647,39.753 C87.647,40.961 88.635,41.943 89.847,41.943 C91.06,41.943 92.02,40.961 92.02,39.753 C92.02,38.547 91.06,37.592 89.847,37.592 Z" id="Fill-43" fill="#FFFFFE"></path>
            <path d="M89.868,73.57 C90.629,73.57 91.222,74.16 91.222,74.918 C91.222,75.677 90.629,76.267 89.868,76.267 C89.106,76.267 88.514,75.677 88.514,74.918 C88.514,74.16 89.106,73.57 89.868,73.57 Z M89.868,72.756 C88.655,72.756 87.668,73.711 87.668,74.918 C87.668,76.126 88.655,77.109 89.868,77.109 C91.081,77.109 92.04,76.126 92.04,74.918 C92.04,73.711 91.081,72.756 89.868,72.756 Z" id="Fill-44" fill="#E8A12E"></path>
        </g>
    </g>
</svg>