<?xml version="1.0" encoding="UTF-8"?>
<svg width="4096px" height="690px" viewBox="0 0 4096 690" version="1.1" xmlns="http://www.w3.org/2000/svg" xmlns:xlink="http://www.w3.org/1999/xlink">
    <!-- Generator: Sketch 48.2 (47327) - http://www.bohemiancoding.com/sketch -->
    <title>Group</title>
    <desc>Created with Sketch.</desc>
    <defs>
        <linearGradient x1="-32.1742565%" y1="7.64945652%" x2="96.1868747%" y2="93.3695652%" id="linearGradient-1">
            <stop stop-color="#28155A" offset="0%"></stop>
            <stop stop-color="#831A44" offset="46.0598693%"></stop>
            <stop stop-color="#A90039" offset="100%"></stop>
        </linearGradient>
        <linearGradient x1="6.45131461%" y1="26.6576087%" x2="55.0055598%" y2="50%" id="linearGradient-2">
            <stop stop-color="#28155A" offset="0%"></stop>
            <stop stop-color="#831A44" offset="100%"></stop>
        </linearGradient>
        <linearGradient x1="0%" y1="0%" x2="56.047207%" y2="25.4619565%" id="linearGradient-3">
            <stop stop-color="#28155A" offset="0%"></stop>
            <stop stop-color="#831A44" offset="100%"></stop>
        </linearGradient>
    </defs>
    <g id="Page-1" stroke="none" stroke-width="1" fill="none" fill-rule="evenodd">
        <g id="Group">
            <path d="M0,0 L0,690 C241.208333,477.8125 629.03125,417.1875 1163.46875,508.125 C1965.125,644.53125 2551.125,570.96875 2776.875,508.125 C3002.625,445.28125 3389.625,1.4572542e-14 4096,0 C4566.91667,0 3201.58333,0 0,0 Z" id="Path-3" fill="url(#linearGradient-1)"></path>
            <path d="M0,0 L0,690 C106.708333,460.458333 384.25,372.15625 832.625,425.09375 C1505.1875,504.5 2327.75,512.78125 2632.40625,345.6875 C2937.0625,178.59375 3543.9375,6.70450188e-15 3819.96875,5.98479599e-16 C4003.98958,1.994932e-16 2730.66667,0 0,0 Z" id="Path-2" fill="url(#linearGradient-2)"></path>
            <path d="M0,0 L0,690 C140.75,370.333333 411.21875,232.916667 811.40625,277.75 C1411.6875,345 1683.625,429.65625 2089.8125,277.75 C2496,125.84375 3027.84375,7.49684394e-15 3322.625,0 C3519.14583,0 2411.60417,0 0,0 Z" id="Path" fill="url(#linearGradient-3)"></path>
        </g>
    </g>
</svg>