<?xml version="1.0" encoding="UTF-8"?>
<svg width="1200px" height="600px" viewBox="0 0 1200 600" version="1.1" xmlns="http://www.w3.org/2000/svg" xmlns:xlink="http://www.w3.org/1999/xlink">
    <!-- Generator: Sketch 48.2 (47327) - http://www.bohemiancoding.com/sketch -->
    <title>Group</title>
    <desc>Created with Sketch.</desc>
    <defs></defs>
    <g id="Page-1" stroke="none" stroke-width="1" fill="none" fill-rule="evenodd">
        <g id="Group">
            <path d="M0,600 C151.927083,571.901042 242.166667,547.460938 270.71875,526.679687 C313.546875,495.507813 507.984375,398.289063 723.992188,430.921875 C867.997396,452.677083 1026.66667,369.036458 1200,180 L1200,0 L0,0 L0,600 Z" id="Path-4" fill="#A90039"></path>
            <path d="M0,600 C90.1302083,588.0625 167.367188,545.729167 231.710937,473 C328.226562,363.90625 498.929688,324.710938 529.21875,322.28125 C542.900969,321.183708 744.581301,331.472266 865.453125,233.21875 C903.796553,202.05039 928.645511,124.310806 940,0 L0,0 L0,600 Z" id="Path-2" fill="#831A44"></path>
            <path d="M0,0 L0,600 C96.1448362,570.78125 151.679712,526.739583 166.604628,467.875 C188.992002,379.578125 186.942454,333.574219 260.071913,277.132812 C333.201373,220.691406 386.418683,182.382813 395.460344,123.257813 C404.502005,64.1328125 458.129225,5.79188638e-15 497.330778,0 C523.465146,0 357.68822,0 0,0 Z" id="Path" fill="#28155A"></path>
        </g>
    </g>
</svg>