<?xml version="1.0" encoding="UTF-8"?>
<svg width="4096px" height="690px" viewBox="0 0 4096 690" version="1.1" xmlns="http://www.w3.org/2000/svg" xmlns:xlink="http://www.w3.org/1999/xlink">
    <!-- Generator: Sketch 48.2 (47327) - http://www.bohemiancoding.com/sketch -->
    <title>am-curves-v.3.0</title>
    <desc>Created with Sketch.</desc>
    <defs></defs>
    <g id="Page-1" stroke="none" stroke-width="1" fill="none" fill-rule="evenodd">
        <path d="M0,0 C905.791667,225.729167 1677.71875,290.114583 2315.78125,193.15625 C2953.84375,96.1979167 3547.25,71.2885075 4096,118.428023 L4096,393.75 C3301.39583,227.208333 2604.64583,227.208333 2005.75,393.75 C1406.85417,560.291667 738.270833,493.427083 0,193.15625 L0,0 Z" id="Path-3" fill="#A90039"></path>
        <path d="M0,113 C994.666667,318.614583 1766.59375,383 2315.78125,306.15625 C2864.96875,229.3125 3458.375,204.403091 4096,231.428023 L4096,506.75 C3301.39583,340.208333 2604.64583,340.208333 2005.75,506.75 C1406.85417,673.291667 738.270833,606.427083 0,306.15625 L0,113 Z" id="Path-3" fill="#831A26"></path>
        <path d="M0,207 C951.364583,509.364583 1723.29167,573.75 2315.78125,400.15625 C2908.27083,226.5625 3501.67708,201.653091 4096,325.428023 L4096,600.75 C3301.39583,434.208333 2604.64583,434.208333 2005.75,600.75 C1406.85417,767.291667 738.270833,700.427083 0,400.15625 L0,207 Z" id="Path-3" fill="#28155A"></path>
    </g>
</svg>