<?xml version="1.0" encoding="UTF-8"?>
<svg width="1069px" height="1006px" viewBox="0 0 1069 1006" version="1.1" xmlns="http://www.w3.org/2000/svg" xmlns:xlink="http://www.w3.org/1999/xlink">
    <!-- Generator: Sketch 48.2 (47327) - http://www.bohemiancoding.com/sketch -->
    <title>Combined Shape</title>
    <desc>Created with Sketch.</desc>
    <defs></defs>
    <g id="Page-1" stroke="none" stroke-width="1" fill="none" fill-rule="evenodd">
        <path d="M1192.8959,648.25029 L1189.15371,645.376889 C1174.82559,627.220639 1166.79955,610.249285 1165.07559,594.462827 C1162.48965,570.783139 1165.07559,551.033139 1167.66152,537.455014 C1170.24746,523.876889 1167.66152,477.165952 1150.80996,434.587827 C1133.9584,392.009702 1111.34902,434.587827 1095.84121,434.587827 C1080.3334,434.587827 1054.40371,420.642514 1083.34902,457.915952 C1112.29434,495.189389 1106.02871,549.947202 1128.05215,610.064389 C1150.07559,670.181577 1128.05215,708.986264 1095.84121,720.408139 C1063.63027,731.830014 1054.40371,708.986264 1024.97402,682.947202 C995.544337,656.908139 1024.97402,637.775327 1054.40371,618.142514 C1083.8334,598.509702 1069.54434,555.517514 1054.40371,494.251889 C1039.26309,432.986264 990.294337,420.642514 917.755274,420.642514 C845.216212,420.642514 871.114649,434.587827 858.981837,494.251889 C846.849024,553.915952 905.114649,552.244077 931.708399,628.540952 C958.302149,704.837827 917.567774,736.353452 871.114649,742.845639 C824.661524,749.337827 846.849024,697.173764 858.981837,682.947202 C871.114649,668.720639 858.981837,659.072202 858.981837,628.540952 C858.981837,598.009702 849.286524,566.093903 830.567774,537.455014 C811.849024,508.816126 792.474024,494.251889 655.434962,457.915952 C518.395899,421.580014 521.888087,494.251889 466.200587,494.251889 C429.075587,494.251889 395.700587,478.535744 366.075587,447.103452 C319.976628,429.462827 310.106837,439.48366 336.466212,477.165952 C376.005274,533.689389 384.395899,645.087827 385.380274,669.923764 C386.364649,694.759702 348.520899,708.986264 315.817774,708.986264 C283.114649,708.986264 288.544337,677.962827 283.591212,659.072202 C278.638087,640.181577 296.927149,614.134702 315.817774,594.462827 C334.708399,574.790952 315.817774,537.455014 296.927149,494.251889 C278.036524,451.048764 255.864649,455.486264 223.333399,447.103452 C190.802149,438.720639 176.020899,447.103452 154.638087,477.165952 C133.255274,507.228452 145.630274,537.455014 135.091212,594.462827 C124.552149,651.470639 152.559962,648.533139 154.638087,669.923764 C156.716212,691.314389 136.567774,708.986264 135.091212,708.986264 C133.614649,708.986264 114.075587,714.744077 91.0599618,708.986264 C68.0443368,703.228452 77.3880868,695.408139 73.7162118,669.923764 C71.2682952,652.934181 77.0495452,627.780535 91.0599618,594.462827 C105.424545,541.613869 113.09642,508.210223 114.075587,494.251889 C115.054753,480.293556 107.382878,460.405535 91.0599618,434.587827 C61.8724618,425.290952 40.0755868,420.642514 25.6693368,420.642514 C4.05996182,420.642514 13.6224618,445.955014 37.5677743,494.251889 C61.5130868,542.548764 -10.1509757,542.908139 -33.6353507,537.455014 C-49.2916007,533.819598 -58.1275382,494.882098 -60.1431632,420.642514 L-65.1041007,419.745858 L-65.1041007,404.455014 C-65.1041007,393.409319 -56.1497957,384.455014 -45.1041007,384.455014 L1172.8959,384.455014 C1183.94159,384.455014 1192.8959,393.409319 1192.8959,404.455014 L1192.8959,648.25029 Z" id="Combined-Shape" fill="#FBF1A9" transform="translate(563.895899, 563.928592) rotate(315.000000) translate(-563.895899, -563.928592) "></path>
    </g>
</svg>