<svg xmlns="http://www.w3.org/2000/svg" width="561.448" height="127.999" viewBox="0 0 561.448 127.999"><title>logo</title><path d="M61.685,77.23V66.481c13.4,0,12.734-4.3,12.734-7.276V18.357c0-3.142.5-7.276-12.9-7.276V0h79.215c7.276.165,14.057,2.481,18.191,8.6,4.961,7.773,3.8,19.68-1.158,27.121-9.261,10.584-26.625,9.426-43.494,9.426V59.038c0,2.977-.5,6.946,11.411,7.276h3.969v11.08Zm60.692-44.651c7.773,0,12.072-3.142,12.072-10.749,0-7.111-4.8-10.915-11.907-10.915h-7.773V32.579Z" fill="#00634e"/><path d="M163.886,77.23V66.481c13.4,0,12.734-4.3,12.734-7.276V53.252l.165-34.894c0-3.142.5-7.276-12.9-7.276V0h95.752V29.935H239.131V15.876c0-5.623-1.985-4.961-7.773-4.961H220.939c-5.788,0-7.773-.5-7.773,4.961V27.121c0,5.623,1.985,4.961,7.773,4.961h8.269V44.816h-8.269c-5.788,0-7.773-.5-7.773,5.127V61.188c0,5.623,3.473,4.961,9.1,4.961H225.4c2.646,0,5.292.165,7.773-.827,1.654-.827,2.811-3.969,3.473-6.284l2.646-8.765h20.176V77.064Z" fill="#00634e"/><path d="M299.328,55.235c-1.819,4.63-2.811,5.788-2.977,8.765a2.634,2.634,0,0,0,1.488,1.984c3.142.331,12.569.165,12.569.165v11.08h-47.3V66.314c4.8.331,9.757-.165,12.568-3.8l2.15-3.638L299.99,0H350.1l26.625,57.881c1.323,2.811,2.15,5.953,4.961,7.773,1.819.827,4.3.5,6.284.661V77.4H324.3V66.315c3.473,0,7.607,0,10.749-.331A2.637,2.637,0,0,0,336.537,64c-.165-2.977-1.158-4.134-2.977-8.765H299.328M315.2,11.742,303.3,44.32h25.964Z" fill="#00634e"/><path d="M451.969,32.579c7.773,0,12.072-3.142,12.072-10.749,0-7.111-4.8-10.915-11.907-10.915h-9.261V32.579Zm0,33.9c7.773,0,12.072-3.142,12.072-10.749,0-7.111-4.8-10.915-11.907-10.915h-9.261V66.481Zm-60.2,10.749V66.481c13.395,0,12.734-4.3,12.734-7.276l.165-40.848c0-3.142.5-7.276-12.9-7.276V0h76.072c9.922,0,23.979,1.984,23.979,19.349,0,11.08-8.434,15.049-12.072,17.53C486.7,39.2,494.47,44.322,494.47,55.567c0,12.568-6.946,21.664-28.279,21.664H391.773Z" fill="#00634e"/><path d="M491.328,75.907h69.953V62.346H500.258C498.935,68.3,497.282,73.1,491.328,75.907Z" fill="#ee7335"/><polygon points="68.134 42.005 0 42.005 0 55.566 68.134 55.566 68.134 53.747 68.134 42.005" fill="#ee7335"/><path d="M500.92,55.566h60.527V42.005H495.959C499.266,44.982,500.755,49.282,500.92,55.566Z" fill="#ee7335"/><path d="M490.336,35.225h71.111V21.664H498.108C496.951,28.941,494.14,32.744,490.336,35.225Z" fill="#ee7335"/><rect y="21.664" width="68.3" height="13.561" fill="#ee7335"/><path d="M65.984,12.568c-10.253-.5-11.245,1.323-11.245-11.245H0V14.884H68.134C67.969,13.891,67.638,12.568,65.984,12.568Z" fill="#ee7335"/><path d="M65.984,64.992c-10.915.661-11.245-2.315-11.245,10.915H0V62.346H68.134C67.969,63.173,67.638,64.992,65.984,64.992Z" fill="#ee7335"/><path d="M561.447,1.158H491.163c5.292,3.8,6.119,6.45,6.946,13.561h63.339V1.158Z" fill="#ee7335"/><path d="M.827,127.339V104.848H5.292L14.553,119.9V104.848h4.3v22.491h-4.63l-9.1-14.719v14.718H.827Z"/><path d="M25.633,116.258a15.135,15.135,0,0,1,.992-5.788,9.691,9.691,0,0,1,2.15-3.142,5.945,5.945,0,0,1,2.977-1.984,10.835,10.835,0,0,1,4.8-.827,10.227,10.227,0,0,1,7.938,3.142c1.984,1.984,2.977,4.961,2.977,8.6a12.082,12.082,0,0,1-2.977,8.6A10.837,10.837,0,0,1,36.548,128a10.224,10.224,0,0,1-7.938-3.142A12.648,12.648,0,0,1,25.633,116.258Zm4.631-.165a8.654,8.654,0,0,0,1.819,5.788,6.016,6.016,0,0,0,8.93,0,8.654,8.654,0,0,0,1.819-5.788c0-2.646-.5-4.465-1.654-5.788a6.016,6.016,0,0,0-8.93,0C30.76,111.628,30.264,113.447,30.264,116.093Z"/><path d="M54.078,127.339V104.848H63.67a14.132,14.132,0,0,1,5.292.661,4.843,4.843,0,0,1,2.646,2.15,6.117,6.117,0,0,1,.992,3.473,5.764,5.764,0,0,1-1.488,4.134,7.142,7.142,0,0,1-4.465,2.15,9.658,9.658,0,0,1,2.481,1.819,35.834,35.834,0,0,1,2.646,3.638l2.811,4.465H69.128l-3.307-4.961c-1.158-1.819-1.985-2.811-2.315-3.307a3.464,3.464,0,0,0-1.323-.992,7.676,7.676,0,0,0-2.315-.331h-.992v9.426h-4.8v.166Zm4.63-12.9h3.307a18.8,18.8,0,0,0,4.134-.331,2.571,2.571,0,0,0,1.323-.992,2.791,2.791,0,0,0,.5-1.654,2.258,2.258,0,0,0-.661-1.819,2.036,2.036,0,0,0-1.654-.827h-6.78v5.623Z"/><path d="M79.876,104.848h8.269a14.559,14.559,0,0,1,4.3.5,7.691,7.691,0,0,1,3.473,2.15,8.881,8.881,0,0,1,2.15,3.638,16.5,16.5,0,0,1,.661,5.292,14.02,14.02,0,0,1-.661,4.8,8.168,8.168,0,0,1-2.481,3.969,8.29,8.29,0,0,1-3.142,1.819,12.9,12.9,0,0,1-3.969.5h-8.6Zm4.63,3.8v14.884h3.473a12.637,12.637,0,0,0,2.811-.165,3.941,3.941,0,0,0,1.819-.992,5.234,5.234,0,0,0,1.158-2.15,13.343,13.343,0,0,0,.5-4.134,11.533,11.533,0,0,0-.5-3.969,4,4,0,0,0-1.323-2.15,4.326,4.326,0,0,0-2.15-.992,20.334,20.334,0,0,0-3.8-.165H84.5v-.167Z"/><path d="M105.674,127.339V104.848h16.7v3.8H110.305v4.961H121.55v3.8H110.305v6.119h12.568v3.8h-17.2Z"/><path d="M129.819,127.339V104.848h4.465l9.261,15.049V104.848h4.3v22.491h-4.63l-9.1-14.718v14.718Z"/><path d="M154.129,120.062l4.465-.5a5.7,5.7,0,0,0,1.654,3.307,5.252,5.252,0,0,0,3.307.992,4.654,4.654,0,0,0,3.307-.992,3.125,3.125,0,0,0,1.158-2.15,1.877,1.877,0,0,0-.5-1.323,4.778,4.778,0,0,0-1.654-.992c-.5-.165-1.819-.5-3.638-.992a13.847,13.847,0,0,1-5.127-2.15,6.079,6.079,0,0,1-2.15-4.465,5.446,5.446,0,0,1,.992-3.142,6.461,6.461,0,0,1,2.811-2.315,11.323,11.323,0,0,1,4.465-.827,10.326,10.326,0,0,1,6.45,1.819,6.464,6.464,0,0,1,2.315,4.961l-4.465.165a3.628,3.628,0,0,0-1.323-2.481,4.73,4.73,0,0,0-2.811-.827,5.884,5.884,0,0,0-3.142.827,1.655,1.655,0,0,0,0,2.646c.5.5,1.985.992,4.134,1.488a19.108,19.108,0,0,1,4.961,1.654,6.637,6.637,0,0,1,2.481,2.315,6.264,6.264,0,0,1,.827,3.638,7.084,7.084,0,0,1-.992,3.638,5.551,5.551,0,0,1-2.977,2.481,14.113,14.113,0,0,1-4.961.827,10.18,10.18,0,0,1-6.615-1.984A7.85,7.85,0,0,1,154.129,120.062Z"/><path d="M190.181,120.062l4.465-.5a5.7,5.7,0,0,0,1.654,3.307,5.252,5.252,0,0,0,3.307.992,4.654,4.654,0,0,0,3.307-.992,3.125,3.125,0,0,0,1.158-2.15,1.877,1.877,0,0,0-.5-1.323,4.778,4.778,0,0,0-1.654-.992c-.5-.165-1.819-.5-3.638-.992a13.847,13.847,0,0,1-5.127-2.15,6.079,6.079,0,0,1-2.15-4.465,5.446,5.446,0,0,1,.992-3.142,6.461,6.461,0,0,1,2.811-2.315,11.323,11.323,0,0,1,4.465-.827,10.326,10.326,0,0,1,6.45,1.819,6.464,6.464,0,0,1,2.315,4.961l-4.465.165a3.628,3.628,0,0,0-1.323-2.481,4.73,4.73,0,0,0-2.811-.827,5.884,5.884,0,0,0-3.142.827,1.655,1.655,0,0,0,0,2.646c.5.5,1.985.992,4.134,1.488a19.108,19.108,0,0,1,4.961,1.654,6.637,6.637,0,0,1,2.481,2.315,6.264,6.264,0,0,1,.827,3.638,7.084,7.084,0,0,1-.992,3.638,5.551,5.551,0,0,1-2.977,2.481,14.113,14.113,0,0,1-4.961.827,10.18,10.18,0,0,1-6.615-1.984C191.339,124.527,190.512,122.543,190.181,120.062Z"/><path d="M235.163,127.339H230.2l-1.985-5.127h-8.93l-1.819,5.127h-4.8l8.765-22.491h4.8Zm-8.269-8.931-3.142-8.269-2.977,8.269Z"/><path d="M240.786,127.339V104.848h6.78l4.134,15.38,3.969-15.38h6.78v22.491h-4.3V109.644l-4.465,17.695h-4.3l-4.465-17.695v17.695Z"/><path d="M270.222,127.339V104.848h4.465v8.93h8.93v-8.93h4.465v22.491h-4.465v-9.757h-8.93v9.757Z"/><path d="M316.362,127.339H311.4l-1.985-5.127h-8.93l-1.819,5.127h-4.8l8.765-22.491h4.8Zm-16.7-23.814V99.887H303.3v3.638Zm8.269,14.883-3.142-8.269-2.977,8.269Zm-1.654-14.883V99.887h3.638v3.638Z"/><path d="M321.985,127.339V105.013h4.465v18.522h11.245v3.8Z"/><path d="M343.979,127.339V105.013h4.465v18.522h11.245v3.8Z"/><path d="M364.817,120.062l4.465-.5a5.7,5.7,0,0,0,1.654,3.307,5.252,5.252,0,0,0,3.307.992,4.654,4.654,0,0,0,3.307-.992,3.125,3.125,0,0,0,1.158-2.15,1.877,1.877,0,0,0-.5-1.323,4.778,4.778,0,0,0-1.654-.992c-.5-.165-1.819-.5-3.638-.992a13.847,13.847,0,0,1-5.127-2.15,6.079,6.079,0,0,1-2.15-4.465,5.446,5.446,0,0,1,.992-3.142,6.461,6.461,0,0,1,2.811-2.315,11.323,11.323,0,0,1,4.465-.827,10.327,10.327,0,0,1,6.45,1.819,6.464,6.464,0,0,1,2.315,4.961l-4.465.165a3.628,3.628,0,0,0-1.323-2.481,4.73,4.73,0,0,0-2.811-.827,5.884,5.884,0,0,0-3.142.827,1.654,1.654,0,0,0,0,2.646c.5.5,1.985.992,4.134,1.488a19.108,19.108,0,0,1,4.961,1.654,6.637,6.637,0,0,1,2.481,2.315,6.264,6.264,0,0,1,.827,3.638,7.084,7.084,0,0,1-.992,3.638,5.547,5.547,0,0,1-2.977,2.481,14.113,14.113,0,0,1-4.961.827,10.18,10.18,0,0,1-6.615-1.984C365.974,124.527,365.147,122.543,364.817,120.062Z"/><path d="M389.954,104.848h8.93a24.686,24.686,0,0,1,3.969.165,5.859,5.859,0,0,1,3.969,2.811,4.854,4.854,0,0,1,.661,2.646,6.745,6.745,0,0,1-.827,2.977,5.5,5.5,0,0,1-2.315,1.984,6.087,6.087,0,0,1,3.142,1.984,6.24,6.24,0,0,1,1.158,3.473,6.491,6.491,0,0,1-.661,2.977,5.5,5.5,0,0,1-1.985,2.315,5.806,5.806,0,0,1-2.977.992c-.827,0-2.646.165-5.457.165h-7.607Zm4.465,3.8v5.127H400.7a3.108,3.108,0,0,0,1.819-.827,2.258,2.258,0,0,0,.661-1.819,2.47,2.47,0,0,0-.5-1.654,2.646,2.646,0,0,0-1.654-.827h-6.614Zm0,8.93v5.953h4.134a13.587,13.587,0,0,0,3.142-.165,5.166,5.166,0,0,0,1.654-.827,2.636,2.636,0,0,0,.661-1.984,2.47,2.47,0,0,0-.5-1.654,2.408,2.408,0,0,0-1.488-.992,18.158,18.158,0,0,0-3.969-.331Z"/><path d="M420.383,127.339v-9.426l-8.269-13.065h5.292l5.292,8.93,5.127-8.93h5.292l-8.269,13.065v9.426Z"/><path d="M447.5,119.07v-3.8h9.757v8.93a13.644,13.644,0,0,1-4.134,2.481,15.885,15.885,0,0,1-5.457.992,11.985,11.985,0,0,1-6.119-1.488,9.09,9.09,0,0,1-3.969-4.3,14.265,14.265,0,0,1-1.323-5.953,13.068,13.068,0,0,1,1.488-6.284,10.362,10.362,0,0,1,4.3-4.134,11.1,11.1,0,0,1,5.457-1.158,11.208,11.208,0,0,1,6.615,1.819,7.749,7.749,0,0,1,2.977,4.8l-4.465.827a5.108,5.108,0,0,0-1.819-2.646,5.25,5.25,0,0,0-3.307-.992,6.617,6.617,0,0,0-4.8,1.819,8.191,8.191,0,0,0-1.819,5.623,8.822,8.822,0,0,0,1.819,5.953,6,6,0,0,0,4.63,1.984,7.715,7.715,0,0,0,2.811-.5,8.787,8.787,0,0,0,2.481-1.323v-2.811H447.5v.165Z"/><path d="M474.791,119.07v-3.8h9.757v8.93a13.644,13.644,0,0,1-4.134,2.481,15.885,15.885,0,0,1-5.457.992,11.985,11.985,0,0,1-6.119-1.488,9.09,9.09,0,0,1-3.969-4.3,14.265,14.265,0,0,1-1.323-5.953,13.068,13.068,0,0,1,1.488-6.284,10.362,10.362,0,0,1,4.3-4.134,11.1,11.1,0,0,1,5.457-1.158,11.208,11.208,0,0,1,6.615,1.819,7.749,7.749,0,0,1,2.977,4.8l-4.465.827a5.108,5.108,0,0,0-1.819-2.646,5.252,5.252,0,0,0-3.307-.992,6.615,6.615,0,0,0-4.8,1.819,8.191,8.191,0,0,0-1.819,5.623A8.822,8.822,0,0,0,470,121.551a6,6,0,0,0,4.63,1.984,7.719,7.719,0,0,0,2.811-.5,8.787,8.787,0,0,0,2.481-1.323v-2.811h-5.127v.165Z"/><path d="M512,127.339h-4.961l-1.984-5.127h-8.93l-1.819,5.127h-4.8l8.765-22.491h4.8Zm-8.434-8.931-3.142-8.269-2.977,8.269Z"/><path d="M517.623,127.339V104.848h9.592a14.132,14.132,0,0,1,5.292.661,4.843,4.843,0,0,1,2.646,2.15,6.117,6.117,0,0,1,.992,3.473,5.763,5.763,0,0,1-1.488,4.134,7.142,7.142,0,0,1-4.465,2.15,9.659,9.659,0,0,1,2.481,1.819,35.683,35.683,0,0,1,2.646,3.638l2.811,4.465h-5.457l-3.307-4.961c-1.158-1.819-1.984-2.811-2.315-3.307a3.464,3.464,0,0,0-1.323-.992,7.676,7.676,0,0,0-2.315-.331h-.992v9.426h-4.8v.166Zm4.465-12.9H525.4a18.8,18.8,0,0,0,4.134-.331,2.572,2.572,0,0,0,1.323-.992,2.791,2.791,0,0,0,.5-1.654,2.256,2.256,0,0,0-.662-1.819,2.036,2.036,0,0,0-1.654-.827h-6.78v5.623Z"/><path d="M543.421,127.339V104.848h16.7v3.8H548.052v4.961H559.3v3.8H548.052v6.119H560.62v3.8h-17.2Z"/></svg>