<?xml version="1.0" encoding="UTF-8"?>
<svg width="16px" height="16px" viewBox="0 0 16 16" version="1.1" xmlns="http://www.w3.org/2000/svg" xmlns:xlink="http://www.w3.org/1999/xlink">
    <!-- Generator: Sketch 48.2 (47327) - http://www.bohemiancoding.com/sketch -->
    <title>Group 2</title>
    <desc>Created with Sketch.</desc>
    <defs></defs>
    <g id="Page-1" stroke="none" stroke-width="1" fill="none" fill-rule="evenodd">
        <g id="Group-2">
            <g id="Group">
                <polygon id="Rectangle" fill-opacity="0.01" fill="#FFFFFF" points="0 0 16 0 16 16 0 16"></polygon>
                <g id="Alviks-Måleri-Logo-Vektoriserad-(1)" transform="translate(0.000000, 1.422222)">
                    <polygon id="Fill-1" fill="#D8232A" points="0.0134306569 4.18254015 7.91240876 4.18254015 7.91240876 0.121459854 0.0134306569 0.121459854"></polygon>
                    <polygon id="Fill-2" fill="#135A9A" points="7.91287591 8.24782482 15.8945401 8.24782482 15.8945401 4.18289051 7.91287591 4.18289051"></polygon>
                    <polygon id="Fill-3" fill="#E8A12E" points="0.0137810219 12.3147445 7.91275912 12.3147445 7.91275912 8.24981022 0.0137810219 8.24981022"></polygon>
                    <path d="M0.840291971,2.70388321 L1.02026277,1.63573723 L1.0279708,1.63573723 L1.20794161,2.70388321 L0.840291971,2.70388321 Z M0.373138686,3.57372263 L0.691036496,3.57372263 L0.790540146,3.00916788 L1.26540146,3.00916788 L1.35731387,3.57372263 L1.67521168,3.57372263 L1.19649635,1.01010219 L0.855708029,1.01010219 L0.373138686,3.57372263 Z" id="Fill-4" fill="#FFFFFF"></path>
                    <polyline id="Fill-5" fill="#FFFFFF" points="1.95491971 1.01068613 2.28426277 1.01068613 2.28426277 3.26680292 2.91608759 3.26680292 2.91608759 3.57372263 1.95491971 3.57372263 1.95491971 1.01068613"></polyline>
                    <polyline id="Fill-6" fill="#FFFFFF" points="2.87929927 1.01056934 3.22394161 1.01056934 3.45763504 2.71416058 3.46522628 2.71416058 3.70277372 1.01056934 4.04741606 1.01056934 3.57629197 3.57360584 3.35042336 3.57360584 2.87929927 1.01056934"></polyline>
                    <path d="M5.29354745,3.5739562 L5.62289051,3.5739562 L5.62289051,1.01068613 L5.29354745,1.01068613 L5.29354745,3.5739562 Z M5.63433577,2.27305109 L5.99439416,1.01068613 L6.33132847,1.01068613 L5.92922628,2.2310073 L6.43094891,3.5739562 L6.09016058,3.5739562 L5.63433577,2.27305109 Z" id="Fill-8" fill="#FFFFFF"></path>
                    <path d="M6.64548905,3.168 C6.73740146,3.25605839 6.8370219,3.30966423 6.93267153,3.30966423 C7.07059854,3.30966423 7.18166423,3.19859854 7.18166423,3.06078832 C7.18166423,2.66627737 6.63018978,2.09179562 6.63018978,1.56718248 C6.63018978,1.22254015 6.84461314,0.981255474 7.15106569,0.981255474 C7.2429781,0.981255474 7.31947445,1.00040876 7.42668613,1.05016058 L7.42668613,1.36035036 C7.32718248,1.30289051 7.27357664,1.28 7.1969635,1.28 C7.03614599,1.28 6.94808759,1.36035036 6.94808759,1.52513869 C6.94808759,1.9309781 7.49944526,2.48245255 7.49944526,3.01862774 C7.49944526,3.36712409 7.2850219,3.60840876 6.97109489,3.60840876 C6.85617518,3.60840876 6.75655474,3.57781022 6.64548905,3.50878832 L6.64548905,3.168" id="Fill-9" fill="#FFFFFF"></path>
                    <polyline id="Fill-10" fill="#D8232A" points="9.31048175 1.01570803 9.59392701 1.01570803 9.59392701 3.5739562 9.28175182 3.5739562 9.28175182 1.72426277 8.9619854 2.55906569 8.90067153 2.55906569 8.5810219 1.72426277 8.5810219 3.5739562 8.26884672 3.5739562 8.26884672 1.01570803 8.55217518 1.01570803 8.93138686 1.9539854 9.31048175 1.01570803"></polyline>
                    <path d="M9.83509489,3.5739562 L10.1529927,3.5739562 L10.2526131,3.00963504 L10.7274745,3.00963504 L10.8193869,3.5739562 L11.1371679,3.5739562 L10.6584526,1.01185401 L10.3176642,1.01185401 L9.83509489,3.5739562 Z M10.302365,2.70458394 L10.4823358,1.63713869 L10.489927,1.63713869 L10.6700146,2.70458394 L10.302365,2.70458394 Z" id="Fill-11" fill="#D8232A"></path>
                    <polyline id="Fill-12" fill="#D8232A" points="11.3898978 1.01570803 11.7192409 1.01570803 11.7192409 3.26762044 12.3511825 3.26762044 12.3511825 3.5739562 11.3898978 3.5739562 11.3898978 1.01570803"></polyline>
                    <polyline id="Fill-13" fill="#D8232A" points="12.5908321 1.01570803 13.5022482 1.01570803 13.5022482 1.3220438 12.9201752 1.3220438 12.9201752 2.08805839 13.4524964 2.08805839 13.4524964 2.39439416 12.9201752 2.39439416 12.9201752 3.26762044 13.5328467 3.26762044 13.5328467 3.5739562 12.5908321 3.5739562 12.5908321 1.01570803"></polyline>
                    <path d="M14.1856934,2.12251095 L14.1856934,1.3220438 C14.3848175,1.32589781 14.4767299,1.45611679 14.4767299,1.73570803 C14.4767299,1.98843796 14.3809635,2.12251095 14.2009927,2.12251095 L14.1856934,2.12251095 Z M13.8563504,3.5739562 L14.1856934,3.5739562 L14.1856934,2.42884672 C14.3732555,2.40969343 14.4499854,2.63182482 14.5647883,3.13354745 L14.6644088,3.5739562 L15.0090511,3.5739562 L14.8902774,3.04922628 C14.802219,2.66627737 14.6950073,2.38283212 14.541781,2.27176642 C14.7180146,2.14925547 14.8059562,1.96928467 14.8059562,1.72426277 C14.8059562,1.40251095 14.660438,1.01570803 14.1320876,1.01570803 L13.8563504,1.01570803 L13.8563504,3.5739562 Z" id="Fill-14" fill="#D8232A"></path>
                    <path d="M0.840291971,6.76227737 L1.02026277,5.69413139 L1.0279708,5.69413139 L1.20794161,6.76227737 L0.840291971,6.76227737 Z M0.373138686,7.63211679 L0.691036496,7.63211679 L0.790540146,7.06756204 L1.26540146,7.06756204 L1.35731387,7.63211679 L1.67521168,7.63211679 L1.19649635,5.06849635 L0.855708029,5.06849635 L0.373138686,7.63211679 Z" id="Fill-16" fill="#135A9A"></path>
                    <polyline id="Fill-17" fill="#135A9A" points="1.95491971 5.06908029 2.28426277 5.06908029 2.28426277 7.32519708 2.91608759 7.32519708 2.91608759 7.63211679 1.95491971 7.63211679 1.95491971 5.06908029"></polyline>
                    <polyline id="Fill-18" fill="#135A9A" points="2.87929927 5.0689635 3.22394161 5.0689635 3.45763504 6.77255474 3.46522628 6.77255474 3.70277372 5.0689635 4.04741606 5.0689635 3.57629197 7.632 3.35042336 7.632 2.87929927 5.0689635"></polyline>
                    <path d="M5.29354745,7.63223358 L5.62289051,7.63223358 L5.62289051,5.06908029 L5.29354745,5.06908029 L5.29354745,7.63223358 Z M5.63433577,6.33144526 L5.99439416,5.06908029 L6.33132847,5.06908029 L5.92922628,6.28940146 L6.43094891,7.63235036 L6.09016058,7.63235036 L5.63433577,6.33144526 Z" id="Fill-20" fill="#135A9A"></path>
                    <path d="M6.64548905,7.22639416 C6.73740146,7.31445255 6.8370219,7.36805839 6.93267153,7.36805839 C7.07059854,7.36805839 7.18166423,7.2569927 7.18166423,7.11918248 C7.18166423,6.72467153 6.63018978,6.15018978 6.63018978,5.62557664 C6.63018978,5.28093431 6.84461314,5.03964964 7.15106569,5.03964964 C7.2429781,5.03964964 7.31947445,5.05880292 7.42668613,5.10855474 L7.42668613,5.41874453 C7.32718248,5.36128467 7.27357664,5.33839416 7.1969635,5.33839416 C7.03614599,5.33839416 6.94808759,5.41874453 6.94808759,5.58353285 C6.94808759,5.98937226 7.49944526,6.54084672 7.49944526,7.0770219 C7.49944526,7.42551825 7.2850219,7.66680292 6.97109489,7.66680292 C6.85617518,7.66680292 6.75655474,7.63620438 6.64548905,7.56718248 L6.64548905,7.22639416" id="Fill-21" fill="#135A9A"></path>
                    <polyline id="Fill-22" fill="#FFFFFE" points="9.31048175 5.04105109 9.59392701 5.04105109 9.59392701 7.59918248 9.28175182 7.59918248 9.28175182 5.74960584 8.9619854 6.58440876 8.90067153 6.58440876 8.5810219 5.74960584 8.5810219 7.59918248 8.26884672 7.59918248 8.26884672 5.04105109 8.55217518 5.04105109 8.93138686 5.97921168 9.31048175 5.04105109"></polyline>
                    <path d="M9.83509489,7.59918248 L10.1529927,7.59918248 L10.2526131,7.03486131 L10.7274745,7.03486131 L10.8193869,7.59918248 L11.1371679,7.59918248 L10.6584526,5.03719708 L10.3176642,5.03719708 L9.83509489,7.59918248 Z M10.302365,6.72992701 L10.4823358,5.66236496 L10.489927,5.66236496 L10.6700146,6.72992701 L10.302365,6.72992701 Z" id="Fill-23" fill="#FFFFFE"></path>
                    <polyline id="Fill-24" fill="#FFFFFE" points="11.3898978 5.04105109 11.7192409 5.04105109 11.7192409 7.29284672 12.3511825 7.29284672 12.3511825 7.59918248 11.3898978 7.59918248 11.3898978 5.04105109"></polyline>
                    <polyline id="Fill-25" fill="#FFFFFE" points="12.5908321 5.04105109 13.5022482 5.04105109 13.5022482 5.34738686 12.9201752 5.34738686 12.9201752 6.11340146 13.4524964 6.11340146 13.4524964 6.41973723 12.9201752 6.41973723 12.9201752 7.29284672 13.5328467 7.29284672 13.5328467 7.59918248 12.5908321 7.59918248 12.5908321 5.04105109"></polyline>
                    <path d="M14.1856934,6.14785401 L14.1856934,5.34738686 C14.3848175,5.35124088 14.4767299,5.48145985 14.4767299,5.76105109 C14.4767299,6.01378102 14.3809635,6.14785401 14.2009927,6.14785401 L14.1856934,6.14785401 Z M13.8563504,7.59918248 L14.1856934,7.59918248 L14.1856934,6.45418978 C14.3732555,6.4350365 14.4499854,6.65716788 14.5647883,7.15889051 L14.6644088,7.59918248 L15.0090511,7.59918248 L14.8902774,7.07456934 C14.802219,6.69162044 14.6950073,6.40817518 14.541781,6.29710949 C14.7180146,6.17459854 14.8059562,5.99462774 14.8059562,5.74960584 C14.8059562,5.42785401 14.660438,5.04105109 14.1320876,5.04105109 L13.8563504,5.04105109 L13.8563504,7.59918248 Z" id="Fill-26" fill="#FFFFFE"></path>
                    <path d="M0.840291971,10.8206715 L1.02026277,9.75252555 L1.0279708,9.75252555 L1.20794161,10.8206715 L0.840291971,10.8206715 Z M0.373138686,11.6905109 L0.691036496,11.6905109 L0.790540146,11.1259562 L1.26540146,11.1259562 L1.35731387,11.6905109 L1.67521168,11.6905109 L1.19649635,9.12689051 L0.855708029,9.12689051 L0.373138686,11.6905109 Z" id="Fill-28" fill="#FFFFFF"></path>
                    <polyline id="Fill-29" fill="#FFFFFF" points="1.95491971 9.12747445 2.28426277 9.12747445 2.28426277 11.3835912 2.91608759 11.3835912 2.91608759 11.6905109 1.95491971 11.6905109 1.95491971 9.12747445"></polyline>
                    <polyline id="Fill-30" fill="#FFFFFF" points="2.87929927 9.12735766 3.22394161 9.12735766 3.45763504 10.8309489 3.46522628 10.8309489 3.70277372 9.12735766 4.04741606 9.12735766 3.57629197 11.6903942 3.35042336 11.6903942 2.87929927 9.12735766"></polyline>
                    <path d="M5.29354745,11.6906277 L5.62289051,11.6906277 L5.62289051,9.12747445 L5.29354745,9.12747445 L5.29354745,11.6906277 Z M5.63433577,10.3898394 L5.99439416,9.12747445 L6.33132847,9.12747445 L5.92922628,10.3477956 L6.43094891,11.6907445 L6.09016058,11.6907445 L5.63433577,10.3898394 Z" id="Fill-32" fill="#FFFFFF"></path>
                    <path d="M6.64548905,11.2847883 C6.73740146,11.3728467 6.8370219,11.4264526 6.93267153,11.4264526 C7.07059854,11.4264526 7.18166423,11.3153869 7.18166423,11.1775766 C7.18166423,10.7830657 6.63018978,10.2085839 6.63018978,9.6839708 C6.63018978,9.33932847 6.84461314,9.0980438 7.15106569,9.0980438 C7.2429781,9.0980438 7.31947445,9.11719708 7.42668613,9.16694891 L7.42668613,9.47713869 C7.32718248,9.41967883 7.27357664,9.39678832 7.1969635,9.39678832 C7.03614599,9.39678832 6.94808759,9.47713869 6.94808759,9.64192701 C6.94808759,10.0477664 7.49944526,10.5992409 7.49944526,11.1354161 C7.49944526,11.4839124 7.2850219,11.7251971 6.97109489,11.7251971 C6.85617518,11.7251971 6.75655474,11.6945985 6.64548905,11.6255766 L6.64548905,11.2847883" id="Fill-33" fill="#FFFFFF"></path>
                    <polyline id="Fill-34" fill="#E8A12E" points="9.31048175 9.13249635 9.59392701 9.13249635 9.59392701 11.6907445 9.28175182 11.6907445 9.28175182 9.84105109 8.9619854 10.675854 8.90067153 10.675854 8.5810219 9.84105109 8.5810219 11.6907445 8.26884672 11.6907445 8.26884672 9.13249635 8.55217518 9.13249635 8.93138686 10.0707737 9.31048175 9.13249635"></polyline>
                    <path d="M9.83509489,11.6907445 L10.1529927,11.6907445 L10.2526131,11.1264234 L10.7274745,11.1264234 L10.8193869,11.6907445 L11.1371679,11.6907445 L10.6584526,9.12864234 L10.3176642,9.12864234 L9.83509489,11.6907445 Z M10.302365,10.8213723 L10.4823358,9.75392701 L10.489927,9.75392701 L10.6700146,10.8213723 L10.302365,10.8213723 Z" id="Fill-35" fill="#E8A12E"></path>
                    <polyline id="Fill-36" fill="#E8A12E" points="11.3898978 9.13249635 11.7192409 9.13249635 11.7192409 11.384292 12.3511825 11.384292 12.3511825 11.6907445 11.3898978 11.6907445 11.3898978 9.13249635"></polyline>
                    <polyline id="Fill-37" fill="#E8A12E" points="12.5908321 9.13249635 13.5022482 9.13249635 13.5022482 9.43883212 12.9201752 9.43883212 12.9201752 10.2048467 13.4524964 10.2048467 13.4524964 10.5111825 12.9201752 10.5111825 12.9201752 11.384292 13.5328467 11.384292 13.5328467 11.6907445 12.5908321 11.6907445 12.5908321 9.13249635"></polyline>
                    <path d="M14.1856934,10.2392993 L14.1856934,9.43883212 C14.3848175,9.44280292 14.4767299,9.57290511 14.4767299,9.85249635 C14.4767299,10.1052263 14.3809635,10.2392993 14.2009927,10.2392993 L14.1856934,10.2392993 Z M13.8563504,11.6907445 L14.1856934,11.6907445 L14.1856934,10.545635 C14.3732555,10.5264818 14.4499854,10.7486131 14.5647883,11.2503358 L14.6644088,11.6907445 L15.0090511,11.6907445 L14.8902774,11.1660146 C14.802219,10.7830657 14.6950073,10.4996204 14.541781,10.3885547 C14.7180146,10.2660438 14.8059562,10.086073 14.8059562,9.84105109 C14.8059562,9.51929927 14.660438,9.13249635 14.1320876,9.13249635 L13.8563504,9.13249635 L13.8563504,11.6907445 Z" id="Fill-38" fill="#E8A12E"></path>
                    <path d="M14.8404088,12.5574307 C14.8404088,12.8448467 15.0743358,13.0786569 15.361635,13.0786569 C15.6491679,13.0786569 15.8829781,12.8448467 15.8829781,12.5574307 C15.8829781,12.2700146 15.6491679,12.0362044 15.361635,12.0362044 C15.0743358,12.0362044 14.8404088,12.2700146 14.8404088,12.5574307 Z M14.9123504,12.5574307 C14.9123504,12.3094891 15.1138102,12.1077956 15.361635,12.1077956 C15.6094599,12.1077956 15.8112701,12.3094891 15.8112701,12.5574307 C15.8112701,12.8053723 15.6094599,13.0070657 15.361635,13.0070657 C15.1138102,13.0070657 14.9123504,12.8053723 14.9123504,12.5574307 Z" id="Fill-41" fill="#D8232A"></path>
                    <path d="M10.4843212,0.480934307 C10.5733139,0.480934307 10.6424526,0.549839416 10.6424526,0.638364964 C10.6424526,0.727007299 10.5733139,0.795912409 10.4843212,0.795912409 C10.3954453,0.795912409 10.3263066,0.727007299 10.3263066,0.638364964 C10.3263066,0.549839416 10.3954453,0.480934307 10.4843212,0.480934307 Z M10.4843212,0.385868613 C10.3427737,0.385868613 10.2273869,0.49740146 10.2273869,0.638364964 C10.2273869,0.779445255 10.3427737,0.894248175 10.4843212,0.894248175 C10.6259854,0.894248175 10.7379854,0.779445255 10.7379854,0.638364964 C10.7379854,0.49740146 10.6259854,0.385868613 10.4843212,0.385868613 Z" id="Fill-42" fill="#D8232A"></path>
                    <path d="M10.4930803,4.48525547 C10.582073,4.48525547 10.6513285,4.55416058 10.6513285,4.64268613 C10.6513285,4.73132847 10.582073,4.80023358 10.4930803,4.80023358 C10.4042044,4.80023358 10.3350657,4.73132847 10.3350657,4.64268613 C10.3350657,4.55416058 10.4042044,4.48525547 10.4930803,4.48525547 Z M10.4930803,4.39030657 C10.3515328,4.39030657 10.236146,4.50183942 10.236146,4.64268613 C10.236146,4.78376642 10.3515328,4.89845255 10.4930803,4.89845255 C10.6347445,4.89845255 10.7468613,4.78376642 10.7468613,4.64268613 C10.7468613,4.50183942 10.6347445,4.39030657 10.4930803,4.39030657 Z" id="Fill-43" fill="#FFFFFE"></path>
                    <path d="M10.4955328,8.59211679 C10.5844088,8.59211679 10.6536642,8.6610219 10.6536642,8.74954745 C10.6536642,8.83818978 10.5844088,8.90709489 10.4955328,8.90709489 C10.4065401,8.90709489 10.3374015,8.83818978 10.3374015,8.74954745 C10.3374015,8.6610219 10.4065401,8.59211679 10.4955328,8.59211679 Z M10.4955328,8.49705109 C10.3538686,8.49705109 10.2385985,8.60858394 10.2385985,8.74954745 C10.2385985,8.89062774 10.3538686,9.00543066 10.4955328,9.00543066 C10.6371971,9.00543066 10.7491971,8.89062774 10.7491971,8.74954745 C10.7491971,8.60858394 10.6371971,8.49705109 10.4955328,8.49705109 Z" id="Fill-44" fill="#E8A12E"></path>
                </g>
            </g>
        </g>
    </g>
</svg>